<?xml version="1.0" encoding="utf-8"?>
<!-- Generator: Adobe Illustrator 18.1.1, SVG Export Plug-In . SVG Version: 6.00 Build 0)  -->
<svg version="1.1" id="palette" xmlns="http://www.w3.org/2000/svg" xmlns:xlink="http://www.w3.org/1999/xlink" x="0px" y="0px"
	 viewBox="0 0 502.2 126.1" width="250px" height="63px" xml:space="preserve">
<g>
	<g>
		<polygon fill="#293133" points="0,28.7 6.1,28.7 6.1,80.1 27.5,80.1 27.5,85.4 0,85.4 		"/>
		<path fill="#293133" d="M59.8,26.1c-16.4,0-29.7,13.3-29.7,29.6c0,16.4,13.3,29.7,29.7,29.7c16.4,0,29.6-13.3,29.6-29.7
			C89.5,39.3,76.2,26.1,59.8,26.1z M59.8,79.7c-13.4,0-24.1-10.7-24.1-24.1c0-13.4,10.7-24.1,24.1-24.1c13.4,0,24.1,10.7,24.1,24.1
			C83.9,69.1,73.2,79.7,59.8,79.7z"/>
		<polygon fill="#293133" points="92.2,28.7 98.5,28.7 117,72.2 136.3,28.7 142.5,28.7 117.9,85.2 116.4,85.2 		"/>
		<polygon fill="#293133" points="150.9,28.7 183,28.7 183,34.3 156.7,34.3 156.7,52 182.9,52 182.9,57.5 156.6,57.5 156.6,79.8 
			183.1,79.8 183.1,85.2 150.9,85.2 		"/>
		<polygon fill="#CF384A" points="278.2,28.7 310.2,28.7 310.2,34.3 283.9,34.3 283.9,52 310.1,52 310.1,57.5 283.9,57.5 
			283.9,79.8 310.3,79.8 310.3,85.2 278.2,85.2 		"/>
		<polygon fill="#CF384A" points="191.7,28.7 222.6,28.7 222.6,34.2 210.2,34.2 210.2,85.2 204.2,85.2 204.2,34.3 191.7,34.3 		"/>
		<polygon fill="#CF384A" points="231.3,28.7 233.8,28.7 236.8,57.7 264.9,57.7 264,85.2 260.5,85.2 259.3,63.3 236.7,63.3 
			235.9,85.2 232.1,85.2 		"/>
		<path fill="#293133" d="M346.5,38.5l4.3-3.4c0,0-5.4-9.3-14.4-9.2c-7.4,0-13.1,4.3-14,12.1c0,0-1.2,6.3,4.9,11.9
			c4.4,4,12.9,9.1,15.7,12.6c2.1,2.4,3.3,4.6,3.1,8c-0.2,4.3-4.7,9.2-11.2,9.1c-8.4-0.6-11.4-9.2-11.4-9.2l-4.8,2.9
			c0,0,5.2,11.8,16,11.8c11.8,0,16.9-9.3,16.9-14.6c0.2-8.9-5.5-12.9-10.3-16.8c-4.4-3.8-14.1-8.1-13.5-14.9
			c0.3-6.4,6.3-7.8,8.4-7.7C338.2,31.2,342.5,32.2,346.5,38.5z"/>
		<path fill="#293133" d="M443.2,36.7c0,0-9.5-10.8-24.8-10.7c-16.2-0.3-32.1,10.1-32,29.1c0.3,21,17.4,30.2,32.1,30.2
			c14.5-0.3,28.6-6.8,28.3-28.4c0-0.2-24.3,0-24.3,0v5.3h17.9c0,0-0.5,16.9-22,17c-23-1-26-19-26-24c0-7,3.9-22.6,25.1-23.2
			c13.3-0.2,21.4,8.8,21.4,8.8L443.2,36.7z"/>
		<polygon fill="#293133" points="457.6,28.7 459.2,28.7 496.6,72.1 496.6,28.7 502,28.7 502,85.3 500.8,85.3 463.5,42.8 
			463.5,85.3 457.6,85.3 		"/>
		<g>
			<polygon fill="#293133" points="362.6,0 378.4,0 390.1,20.8 351.5,20.8 			"/>
			<path fill="#293133" d="M375.9,81.1c1.2-2.8-4.2-3.3-4.2-3.3s0.2-7.7,0-19.9c0.3-12.5,1.1-18.3,1.1-19.7c0-1.4-0.8-2.2-1.1-2.3
				c0.8-0.5,1.4-1.5,1.4-2.5c0-0.9-0.6-2.4-1-2.9c-0.4-0.5-0.4-0.5-0.4-0.9c2.2-0.5,1.1-8.1,1-8.9l-1.9-0.2v-0.1l-0.2,0l-0.2,0v0.1
				l-1.9,0.2c-0.2,0.8-1.2,8.4,1,8.9c0,0.4,0,0.4-0.4,0.9c-0.4,0.5-1,1.9-1,2.9c0,0.9,0.6,1.9,1.4,2.5c-0.3,0.1-1.1,0.9-1.1,2.3
				c0,1.4,0.8,7.2,1.1,19.7c-0.2,12.2,0,19.9,0,19.9s-5.4,0.5-4.2,3.3c-0.7,0.3-5.6,1.7-7.3,3.6h12.3h0.4h12.3
				C381.5,82.8,376.6,81.4,375.9,81.1z"/>
		</g>
	</g>
	<g>
		<path d="M263.3,107.3h3.2c1.3,0,2.3,0.2,2.9,0.5c0.7,0.3,1.2,0.8,1.6,1.4c0.4,0.6,0.6,1.3,0.6,2.1c0,0.7-0.2,1.4-0.5,2
			c-0.3,0.6-0.9,1.1-1.5,1.4c0.8,0.3,1.5,0.6,1.9,1c0.4,0.4,0.8,0.8,1.1,1.4c0.2,0.5,0.4,1.1,0.4,1.8c0,1.3-0.5,2.4-1.4,3.3
			c-0.9,0.9-2.2,1.3-3.8,1.3h-4.4V107.3z M264.9,108.9v5.2h0.9c1.1,0,1.9-0.1,2.5-0.3c0.5-0.2,0.9-0.5,1.3-1c0.3-0.5,0.5-1,0.5-1.5
			c0-0.7-0.3-1.3-0.8-1.7c-0.5-0.4-1.3-0.6-2.5-0.6H264.9z M264.9,115.7v6.2h2c1.2,0,2-0.1,2.6-0.3c0.6-0.2,1-0.6,1.3-1.1
			c0.3-0.5,0.5-1,0.5-1.6c0-0.7-0.2-1.3-0.7-1.9c-0.5-0.5-1.1-0.9-1.9-1.1c-0.5-0.1-1.5-0.2-2.9-0.2H264.9z"/>
		<path d="M276.2,107.3h9.2v1.6h-7.6v5.1h7.6v1.6h-7.6v6.3h7.6v1.6h-9.2V107.3z"/>
		<path d="M312.1,110.3l-1.3,1c-0.7-0.9-1.5-1.6-2.5-2.1c-1-0.5-2.1-0.7-3.2-0.7c-1.3,0-2.5,0.3-3.6,0.9c-1.1,0.6-1.9,1.4-2.6,2.5
			c-0.6,1-0.9,2.2-0.9,3.5c0,2,0.7,3.6,2,4.9c1.3,1.3,3,2,5.1,2c2.3,0,4.2-0.9,5.7-2.7l1.3,1c-0.8,1-1.8,1.8-3,2.4
			c-1.2,0.6-2.5,0.8-4,0.8c-2.8,0-5-0.9-6.7-2.8c-1.4-1.6-2.1-3.5-2.1-5.7c0-2.4,0.8-4.3,2.5-6c1.7-1.6,3.7-2.4,6.2-2.4
			c1.5,0,2.9,0.3,4.1,0.9C310.3,108.4,311.3,109.2,312.1,110.3z"/>
		<path d="M323,106.9c2.4,0,4.5,0.8,6.1,2.4c1.6,1.6,2.5,3.6,2.5,6c0,2.4-0.8,4.4-2.5,6c-1.6,1.6-3.6,2.5-6,2.5
			c-2.4,0-4.4-0.8-6.1-2.5c-1.6-1.6-2.5-3.6-2.5-5.9c0-1.5,0.4-3,1.1-4.3c0.7-1.3,1.8-2.4,3.1-3.1
			C320.1,107.3,321.5,106.9,323,106.9z M323.1,108.5c-1.2,0-2.3,0.3-3.4,0.9c-1.1,0.6-1.9,1.5-2.5,2.5c-0.6,1.1-0.9,2.2-0.9,3.5
			c0,1.9,0.7,3.5,2,4.9c1.3,1.3,2.9,2,4.8,2c1.2,0,2.4-0.3,3.5-0.9c1.1-0.6,1.9-1.4,2.5-2.5c0.6-1.1,0.9-2.2,0.9-3.5
			c0-1.3-0.3-2.4-0.9-3.5c-0.6-1-1.4-1.9-2.5-2.5C325.4,108.8,324.3,108.5,323.1,108.5z"/>
		<path d="M342.5,106.9c2.4,0,4.5,0.8,6.1,2.4c1.6,1.6,2.5,3.6,2.5,6c0,2.4-0.8,4.4-2.5,6c-1.6,1.6-3.6,2.5-6,2.5
			c-2.4,0-4.4-0.8-6.1-2.5c-1.6-1.6-2.5-3.6-2.5-5.9c0-1.5,0.4-3,1.1-4.3c0.8-1.3,1.8-2.4,3.1-3.1
			C339.6,107.3,341,106.9,342.5,106.9z M342.6,108.5c-1.2,0-2.3,0.3-3.4,0.9c-1.1,0.6-1.9,1.5-2.5,2.5c-0.6,1.1-0.9,2.2-0.9,3.5
			c0,1.9,0.7,3.5,2,4.9c1.3,1.3,2.9,2,4.8,2c1.2,0,2.4-0.3,3.5-0.9c1.1-0.6,1.9-1.4,2.5-2.5c0.6-1.1,0.9-2.2,0.9-3.5
			c0-1.3-0.3-2.4-0.9-3.5c-0.6-1-1.4-1.9-2.5-2.5C345,108.8,343.8,108.5,342.6,108.5z"/>
		<path d="M354.4,107.3h1.6v14.6h6.2v1.6h-7.8V107.3z"/>
		<path d="M367.4,119.2l2.1,1l-3.2,5.9l-1.5-0.7L367.4,119.2z"/>
		<path d="M380.8,120.4l1.4-0.8c1,1.8,2.1,2.7,3.3,2.7c0.5,0,1-0.1,1.5-0.4c0.5-0.3,0.8-0.6,1.1-1c0.2-0.4,0.4-0.9,0.4-1.3
			c0-0.5-0.2-1.1-0.5-1.6c-0.5-0.7-1.4-1.6-2.8-2.6c-1.3-1-2.2-1.8-2.5-2.2c-0.6-0.8-0.9-1.6-0.9-2.5c0-0.7,0.2-1.3,0.5-1.9
			c0.3-0.6,0.8-1,1.4-1.4c0.6-0.3,1.3-0.5,2-0.5c0.8,0,1.5,0.2,2.1,0.6c0.7,0.4,1.4,1.1,2.1,2.1l-1.3,1c-0.6-0.8-1.1-1.3-1.5-1.6
			c-0.4-0.3-0.9-0.4-1.4-0.4c-0.7,0-1.2,0.2-1.6,0.6c-0.4,0.4-0.6,0.9-0.6,1.5c0,0.4,0.1,0.7,0.2,1c0.1,0.3,0.4,0.7,0.8,1.1
			c0.2,0.2,0.9,0.7,2.1,1.6c1.4,1,2.4,1.9,2.9,2.8c0.5,0.8,0.8,1.6,0.8,2.4c0,1.2-0.4,2.2-1.3,3c-0.9,0.9-2,1.3-3.2,1.3
			c-1,0-1.9-0.3-2.7-0.8C382.2,122.5,381.5,121.6,380.8,120.4z"/>
		<path d="M392.1,108.9v-1.6h8.8v1.6h-3.6v14.5h-1.6v-14.5H392.1z"/>
		<path d="M408,107.3l7.5,16.1h-1.7l-2.5-5.3h-7l-2.5,5.3H400l7.6-16.1H408z M407.8,110.7l-2.8,5.8h5.5L407.8,110.7z"/>
		<path d="M414,107.3h1.9l4.1,6.7l4.1-6.7h1.9l-5.1,8.4v7.7h-1.6v-7.7L414,107.3z"/>
		<path d="M437.4,107.3h1.6v6.8h8.2v-6.8h1.6v16.1h-1.6v-7.8H439v7.8h-1.6V107.3z"/>
		<path d="M460.4,106.9c2.4,0,4.5,0.8,6.1,2.4c1.6,1.6,2.5,3.6,2.5,6c0,2.4-0.8,4.4-2.5,6c-1.6,1.6-3.6,2.5-6,2.5
			c-2.4,0-4.4-0.8-6.1-2.5c-1.6-1.6-2.5-3.6-2.5-5.9c0-1.5,0.4-3,1.1-4.3c0.7-1.3,1.8-2.4,3.1-3.1
			C457.5,107.3,458.9,106.9,460.4,106.9z M460.5,108.5c-1.2,0-2.3,0.3-3.4,0.9c-1.1,0.6-1.9,1.5-2.5,2.5c-0.6,1.1-0.9,2.2-0.9,3.5
			c0,1.9,0.7,3.5,2,4.9c1.3,1.3,2.9,2,4.8,2c1.2,0,2.4-0.3,3.5-0.9c1.1-0.6,1.9-1.4,2.5-2.5c0.6-1.1,0.9-2.2,0.9-3.5
			c0-1.3-0.3-2.4-0.9-3.5c-0.6-1-1.4-1.9-2.5-2.5C462.9,108.8,461.7,108.5,460.5,108.5z"/>
		<path d="M471.5,123.4l2.3-16.1h0.3l6.6,13.2l6.5-13.2h0.3l2.3,16.1h-1.6l-1.6-11.5l-5.7,11.5h-0.4l-5.8-11.6l-1.6,11.6H471.5z"/>
		<path d="M492.9,107.3h9.2v1.6h-7.6v5.1h7.6v1.6h-7.6v6.3h7.6v1.6h-9.2V107.3z"/>
	</g>
</g>
</svg>
